<svg xmlns="http://www.w3.org/2000/svg" viewBox="0 0 187.56 187.44"><defs><style>.cls-1{fill:#e6e1e5;}</style></defs><g id="Layer_2" data-name="Layer 2"><g id="Layer_1-2" data-name="Layer 1"><path class="cls-1" d="M12.3,187.44l-11-11L111.06,66.73a39.33,39.33,0,0,1-2.61-26q3.14-13.46,14.89-25.22A54.88,54.88,0,0,1,151.82.76q16.73-3.25,27.43,7.45,11,11,7.45,27.43a58.17,58.17,0,0,1-15.81,29Q160.18,75.62,147,79T122.3,77.45L104.79,95l81.52,81.52-11,11L93.82,105.93ZM45,95.74,13.87,64.64Q.55,51.32,0,33T12,.63l64,64Z"/></g></g></svg>